# xmcd CD database file
#
# Track frame offsets:
#	182
#	28430
#	51817
#	76387
#	99257
#	125085
#	150062
#	170422
#	192190
#	217022
#	234407
#	259062
#
# Disc length: 3598 seconds
#
# Revision: 2
# Processed by: cddbd v1.5.1PL0 Copyright (c) Steve Scherf et al.
# Submitted via: CDex 1.51
#
DISCID=9a0e0c0c
DTITLE=杉山清貴 - ADD WATER
DYEAR=1900
DGENRE=JPop
TTITLE0=LOST SUMMER DREAMIN'
TTITLE1=僕のシャツを着てなさい
TTITLE2=どうしようもなく　君だけに
TTITLE3=IT'S TOO LATE
TTITLE4=愛はシーツの冷たい場所
TTITLE5=燃える朝焼け
TTITLE6=FROM 0,FROM100
TTITLE7=会いたい気持を終わらせない
TTITLE8=何を見ても涙ぐむ
TTITLE9=SASSO
TTITLE10=ISLAND LETTERS
TTITLE11=FALLING(Album Version)
EXTD=
EXTT0=
EXTT1=
EXTT2=
EXTT3=
EXTT4=
EXTT5=
EXTT6=
EXTT7=
EXTT8=
EXTT9=
EXTT10=
EXTT11=
PLAYORDER=
